<svg width="20" height="20" viewBox="0 0 20 20" fill="none" xmlns="http://www.w3.org/2000/svg">
  <path d="M0.5 14.5H18.5" stroke="#FCFCF5" stroke-width="1" stroke-miterlimit="10"/>
  <path d="M18.5 16.5V2.5C18.5 1.39543 17.6046 0.5 16.5 0.5H2.5C1.39543 0.5 0.5 1.39543 0.5 2.5V16.5C0.5 17.6046 1.39543 18.5 2.5 18.5H16.5C17.6046 18.5 18.5 17.6046 18.5 16.5Z" stroke="#FCFCF5" stroke-width="1" stroke-miterlimit="10" stroke-linecap="square"/>
  <path d="M9.5 10.5C11.1569 10.5 12.5 9.15685 12.5 7.5C12.5 5.84315 11.1569 4.5 9.5 4.5C7.84315 4.5 6.5 5.84315 6.5 7.5C6.5 9.15685 7.84315 10.5 9.5 10.5Z" stroke="#FCFCF5" stroke-width="1" stroke-miterlimit="10" stroke-linecap="square"/>
  <path d="M4 5C4.55228 5 5 4.55228 5 4C5 3.44772 4.55228 3 4 3C3.44772 3 3 3.44772 3 4C3 4.55228 3.44772 5 4 5Z" fill="#FCFCF5"/>
</svg>
