<svg width="18" height="18" viewBox="0 0 18 18" fill="none" xmlns="http://www.w3.org/2000/svg">
  <path d="M17.25 0H0.75C0.3 0 0 0.3 0 0.75V17.25C0 17.7 0.3 18 0.75 18H17.25C17.7 18 18 17.7 18 17.25V0.75C18 0.3 17.7 0 17.25 0ZM5.325 15.375H2.7V6.75H5.4V15.375H5.325ZM3.975 5.55C3.15 5.55 2.4 4.875 2.4 3.975C2.4 3.15 3.075 2.4 3.975 2.4C4.8 2.4 5.55 3.075 5.55 3.975C5.55 4.875 4.875 5.55 3.975 5.55ZM15.375 15.375H12.675V11.175C12.675 10.2 12.675 8.925 11.325 8.925C9.9 8.925 9.75 9.975 9.75 11.1V15.375H7.05V6.75H9.6V7.95C9.975 7.275 10.8 6.6 12.15 6.6C14.85 6.6 15.375 8.4 15.375 10.725V15.375Z" fill="#FCFCF5"/>
</svg>
