<svg width="205" height="45" viewBox="0 0 205 45" fill="none" xmlns="http://www.w3.org/2000/svg">
<g clip-path="url(#clip0_4850_301)">
<path d="M66.6508 11.3256C72.9831 11.3256 76.9657 15.348 76.9657 22.1184C76.9657 29.0481 72.9831 33.1501 66.6508 33.1501C60.3583 33.1501 56.3359 29.0481 56.3359 22.1184C56.3359 15.348 60.3583 11.3256 66.6508 11.3256ZM66.6508 30.5615C69.9563 30.5615 71.4697 28.0524 71.4697 22.1184C71.4697 16.3437 69.9563 13.9143 66.6508 13.9143C63.3851 13.9143 61.8717 16.3437 61.8717 22.1184C61.8717 28.0524 63.3851 30.5615 66.6508 30.5615Z" fill="#FCFCF5" style="fill:#FCFCF5;fill:color(display-p3 0.9882 0.9882 0.9608);fill-opacity:1;"/>
<path d="M86.9486 33.1504C82.8465 33.1504 80.6163 30.6016 80.6163 26.3801V14.7509L77.7796 14.7509V11.7242L85.9529 11.7242V25.5039C85.9529 28.1722 87.3867 29.6856 89.7364 29.6856C92.1259 29.6856 93.7986 28.0527 93.7986 24.8667V14.7509L91.161 14.7509V11.7242L99.1751 11.7242V29.7254L101.972 29.7254V32.7522L93.7986 32.7522V29.0882H92.9623C91.5285 31.9557 89.7364 33.1504 86.9486 33.1504Z" fill="#FCFCF5" style="fill:#FCFCF5;fill:color(display-p3 0.9882 0.9882 0.9608);fill-opacity:1;"/>
<path d="M116.043 26.3804V23.6324H118.433V26.3804C118.433 30.6815 116.083 33.1507 112.061 33.1507C107.919 33.1507 105.45 30.801 105.45 26.46V14.7512H101.826V11.7245H105.529C106.405 11.7245 106.844 11.4059 106.844 10.3306V5.98958L110.786 5.98958V11.7245H117.278V14.7512H110.786V26.3804C110.786 28.531 111.702 29.6859 113.295 29.6859C115.008 29.6859 116.043 28.531 116.043 26.3804Z" fill="#FCFCF5" style="fill:#FCFCF5;fill:color(display-p3 0.9882 0.9882 0.9608);fill-opacity:1;"/>
<path d="M130.665 32.7525L119.655 32.7525V29.7257H122.452V6.70644L119.655 6.70644V3.67969L127.828 3.67969V29.7257L130.665 29.7257V32.7525Z" fill="#FCFCF5" style="fill:#FCFCF5;fill:color(display-p3 0.9882 0.9882 0.9608);fill-opacity:1;"/>
<path d="M153.236 27.8937V23.7917H155.785V27.8937C155.785 31.2789 153.595 33.1507 150.409 33.1507C148.537 33.1507 146.068 32.1949 145.231 29.2478H144.275C143.359 31.6772 140.97 33.1507 138.063 33.1507C134.518 33.1507 131.969 31.2391 131.969 27.8539C131.969 22.4376 137.943 20.7251 144.873 21.3623V18.3356C144.873 15.5478 143.439 14.114 140.651 14.114C137.625 14.114 135.912 15.8265 135.912 19.0126H132.885C132.885 14.0742 136.032 11.3262 141.607 11.3262C147.143 11.3262 150.249 13.8353 150.249 18.8931V28.4513C150.249 29.8054 150.847 30.2833 151.683 30.2833C152.679 30.2833 153.236 29.4868 153.236 27.8937ZM140.85 30.0443C143.12 30.0443 144.873 28.8496 144.873 25.5042V23.6722C139.417 22.9155 137.585 24.7873 137.585 27.0176C137.585 28.7301 138.779 30.0443 140.85 30.0443Z" fill="#FCFCF5" style="fill:#FCFCF5;fill:color(display-p3 0.9882 0.9882 0.9608);fill-opacity:1;"/>
<path d="M167.089 32.7525H156.398V29.7257L159.235 29.7257V14.7512H156.398V11.7245H164.611V15.5478L165.448 15.5478C166.523 12.9591 168.634 11.3262 171.541 11.3262C175.165 11.3262 177.793 14.114 177.793 18.2559V29.7257H180.59V32.7525H169.979V29.7257H172.457V19.1321C172.457 16.4638 171.023 14.7911 168.713 14.7911C166.244 14.7911 164.611 16.7425 164.611 20.0481V29.7257H167.089V32.7525Z" fill="#FCFCF5" style="fill:#FCFCF5;fill:color(display-p3 0.9882 0.9882 0.9608);fill-opacity:1;"/>
<path d="M201.898 3.67999V29.726L204.695 29.7257V32.7525L197.437 32.7528V28.5313H195.924C194.849 31.5182 192.698 33.151 189.432 33.151C184.534 33.151 181.348 29.2481 181.348 22.2786C181.348 15.2693 184.534 11.3265 189.432 11.3265C192.3 11.3265 194.371 12.601 195.526 14.9905H196.521V6.70675L193.725 6.70675V3.67999L201.898 3.67999ZM191.703 29.965C194.849 29.965 196.521 27.4161 196.521 22.2786C196.521 17.1013 194.849 14.4728 191.703 14.4728C188.596 14.4728 186.844 17.1013 186.844 22.2786C186.844 27.3763 188.596 29.965 191.703 29.965Z" fill="#FCFCF5" style="fill:#FCFCF5;fill:color(display-p3 0.9882 0.9882 0.9608);fill-opacity:1;"/>
<path d="M5.41475 25.1325H2.62229V22.3401H5.41475V25.1325Z" fill="#FCFCF5" style="fill:#FCFCF5;fill:color(display-p3 0.9882 0.9882 0.9608);fill-opacity:1;"/>
<path d="M10.9997 25.1325H8.2072V22.3401H10.9997V25.1325Z" fill="#FCFCF5" style="fill:#FCFCF5;fill:color(display-p3 0.9882 0.9882 0.9608);fill-opacity:1;"/>
<path d="M16.5846 25.1325H13.7921V22.3401H16.5846V25.1325Z" fill="#FCFCF5" style="fill:#FCFCF5;fill:color(display-p3 0.9882 0.9882 0.9608);fill-opacity:1;"/>
<path d="M44.3359 25.1325H41.6287C41.5043 26.1196 41.2484 27.0878 40.8661 28.0108C40.3047 29.366 39.482 30.5973 38.4448 31.6345C37.4075 32.6717 36.1762 33.4945 34.821 34.0558C33.4658 34.6172 32.0133 34.9061 30.5465 34.9061C29.0797 34.9061 27.6272 34.6172 26.272 34.0558C24.9168 33.4945 23.6855 32.6717 22.6483 31.6345C21.611 30.5973 20.7883 29.366 20.2269 28.0108C19.8446 27.0878 19.5887 26.1196 19.4643 25.1325H16.5846V27.925H13.7921V25.1325H10.9997V27.925H8.2072V25.1325H5.41475V27.925H2.62229V25.1325H0.00234222C1.3765 36.1524 10.777 44.6797 22.1691 44.6797C33.5613 44.6797 42.9618 36.1524 44.3359 25.1325Z" fill="#FCFCF5" style="fill:#FCFCF5;fill:color(display-p3 0.9882 0.9882 0.9608);fill-opacity:1;"/>
<path d="M0.00234222 19.5476H2.70957C2.83393 18.5605 3.08988 17.5924 3.47221 16.6693C4.03355 15.3141 4.85631 14.0828 5.89352 13.0456C6.93074 12.0084 8.16209 11.1856 9.51728 10.6243C10.8725 10.0629 12.3249 9.77401 13.7918 9.77401C15.2586 9.77401 16.7111 10.0629 18.0663 10.6243C19.4215 11.1856 20.6528 12.0084 21.69 13.0456C22.7272 14.0828 23.55 15.3141 24.1113 16.6693C24.4937 17.5924 24.7496 18.5605 24.874 19.5476H27.7544V16.7551H30.5468V19.5476H33.3393V16.7551H36.1317V19.5476H38.9242V16.7551H41.7166V19.5476H44.3359C42.9618 8.52771 33.5613 0.000427246 22.1691 0.000427246C10.777 0.000427246 1.3765 8.52771 0.00234222 19.5476Z" fill="#FCFCF5" style="fill:#FCFCF5;fill:color(display-p3 0.9882 0.9882 0.9608);fill-opacity:1;"/>
<path d="M30.5468 22.3401H27.7544V19.5476H30.5468V22.3401Z" fill="#FCFCF5" style="fill:#FCFCF5;fill:color(display-p3 0.9882 0.9882 0.9608);fill-opacity:1;"/>
<path d="M36.1317 22.3401H33.3393V19.5476H36.1317V22.3401Z" fill="#FCFCF5" style="fill:#FCFCF5;fill:color(display-p3 0.9882 0.9882 0.9608);fill-opacity:1;"/>
<path d="M41.7166 22.3401H38.9242V19.5476H41.7166V22.3401Z" fill="#FCFCF5" style="fill:#FCFCF5;fill:color(display-p3 0.9882 0.9882 0.9608);fill-opacity:1;"/>
</g>
<defs>
<clipPath id="clip0_4850_301">
<rect width="204.692" height="44.6793" fill="white" style="fill:white;fill-opacity:1;"/>
</clipPath>
</defs>
</svg>
