<svg viewBox="0 0 22.1543 24.7134" fill="none" xmlns="http://www.w3.org/2000/svg">
  <path d="M11.0802 0V5.0431" stroke="#FCFCF5" transform="translate(4.9265 -3.93355) rotate(25.7143)" />
  <path d="M11.0802 0V5.0431" stroke="#FCFCF5" transform="translate(11.0718 -5.34002) rotate(51.4286)" />
  <path d="M11.0802 0V5.0431" stroke="#FCFCF5" transform="translate(17.2188 -3.94086) rotate(77.1429)" />
  <path d="M11.0802 0V5.0431" stroke="#FCFCF5" transform="translate(22.15 -0.0131773) rotate(102.857)" />
  <path d="M11.0802 0V5.0431" stroke="#FCFCF5" transform="translate(24.8887 5.6651) rotate(128.571)" />
  <path d="M11.0802 0V5.0431" stroke="#FCFCF5" transform="translate(24.8924 11.9693) rotate(154.286)" />
  <path d="M11.0802 0V5.0431" stroke="#FCFCF5" transform="translate(22.1605 17.6508) rotate(-180)" />
  <path d="M11.0802 0V5.0431" stroke="#FCFCF5" transform="translate(17.234 21.5844) rotate(-154.286)" />
  <path d="M11.0802 0V5.0431" stroke="#FCFCF5" transform="translate(11.0887 22.9909) rotate(-128.571)" />
  <path d="M11.0802 0V5.0431" stroke="#FCFCF5" transform="translate(4.94168 21.5917) rotate(-102.857)" />
  <path d="M11.0802 0V5.0431" stroke="#FCFCF5" transform="translate(0.0105077 17.664) rotate(-77.1429)" />
  <path d="M11.0802 0V5.0431" stroke="#FCFCF5" transform="translate(-2.72817 11.9857) rotate(-51.4286)" />
  <path d="M11.0802 0V5.0431" stroke="#FCFCF5" transform="translate(-2.73192 5.68153) rotate(-25.7143)" />
  <path
    d="M22.1543 20.9488L11.0771 24.7125V24.7134L0 20.9488L0 4.78472L11.0762 8.54839L22.1543 4.78472V20.9488Z"
    fill="#1D1C1A"
    stroke="#FCFCF5"
    stroke-width="1"
    stroke-linejoin="round"
  />
  <path d="M11.0772 0V24.4632" stroke="#FCFCF5" />
</svg>
