<svg xmlns="http://www.w3.org/2000/svg" width="32" height="32" viewBox="0 0 32 32">
  <rect width="32" height="32" rx="6" fill="#1d1c1a"/>
  <g transform="translate(3.1 3) scale(0.5819)" fill="#FCFCF5">
    <path d="M5.41475 25.1325H2.62229V22.3401H5.41475V25.1325Z"/>
    <path d="M10.9997 25.1325H8.2072V22.3401H10.9997V25.1325Z"/>
    <path d="M16.5846 25.1325H13.7921V22.3401H16.5846V25.1325Z"/>
    <path d="M44.3359 25.1325H41.6287C41.5043 26.1196 41.2484 27.0878 40.8661 28.0108C40.3047 29.366 39.482 30.5973 38.4448 31.6345C37.4075 32.6717 36.1762 33.4945 34.821 34.0558C33.4658 34.6172 32.0133 34.9061 30.5465 34.9061C29.0797 34.9061 27.6272 34.6172 26.272 34.0558C24.9168 33.4945 23.6855 32.6717 22.6483 31.6345C21.611 30.5973 20.7883 29.366 20.2269 28.0108C19.8446 27.0878 19.5887 26.1196 19.4643 25.1325H16.5846V27.925H13.7921V25.1325H10.9997V27.925H8.2072V25.1325H5.41475V27.925H2.62229V25.1325H0.00234222C1.3765 36.1524 10.777 44.6797 22.1691 44.6797C33.5613 44.6797 42.9618 36.1524 44.3359 25.1325Z"/>
    <path d="M0.00234222 19.5476H2.70957C2.83393 18.5605 3.08988 17.5924 3.47221 16.6693C4.03355 15.3141 4.85631 14.0828 5.89352 13.0456C6.93074 12.0084 8.16209 11.1856 9.51728 10.6243C10.8725 10.0629 12.3249 9.77401 13.7918 9.77401C15.2586 9.77401 16.7111 10.0629 18.0663 10.6243C19.4215 11.1856 20.6528 12.0084 21.69 13.0456C22.7272 14.0828 23.55 15.3141 24.1113 16.6693C24.4937 17.5924 24.7496 18.5605 24.874 19.5476H27.7544V16.7551H30.5468V19.5476H33.3393V16.7551H36.1317V19.5476H38.9242V16.7551H41.7166V19.5476H44.3359C42.9618 8.52771 33.5613 0.000427246 22.1691 0.000427246C10.777 0.000427246 1.3765 8.52771 0.00234222 19.5476Z"/>
    <path d="M30.5468 22.3401H27.7544V19.5476H30.5468V22.3401Z"/>
    <path d="M36.1317 22.3401H33.3393V19.5476H36.1317V22.3401Z"/>
    <path d="M41.7166 22.3401H38.9242V19.5476H41.7166V22.3401Z"/>
  </g>
</svg>
